<?xml version="1.0" encoding="UTF-8" standalone="no"?>
<!-- Created with Inkscape (http://www.inkscape.org/) -->

<svg
   xmlns:dc="http://purl.org/dc/elements/1.1/"
   xmlns:cc="http://creativecommons.org/ns#"
   xmlns:rdf="http://www.w3.org/1999/02/22-rdf-syntax-ns#"
   xmlns:svg="http://www.w3.org/2000/svg"
   xmlns="http://www.w3.org/2000/svg"
   xmlns:sodipodi="http://sodipodi.sourceforge.net/DTD/sodipodi-0.dtd"
   xmlns:inkscape="http://www.inkscape.org/namespaces/inkscape"
   width="300"
   height="300"
   id="svg4241"
   version="1.1"
   inkscape:version="0.48.1 r9760"
   sodipodi:docname="New document 13">
  <defs
     id="defs4243" />
  <sodipodi:namedview
     pagecolor="#000000"
     bordercolor="#000000"
     borderopacity="1.0"
     inkscape:pageopacity="1.0"
     inkscape:pageshadow="0"
     inkscape:zoom="6.7128004"
     inkscape:cx="49.577527"
     inkscape:cy="253.34446"
     inkscape:document-units="px"
     inkscape:current-layer="layer1"
     id="namedview4245"
     showgrid="false"
     inkscape:window-width="1389"
     inkscape:window-height="890"
     inkscape:window-x="0"
     inkscape:window-y="26"
     inkscape:window-maximized="0" />
  <metadata
     id="metadata4247">
    <rdf:RDF>
      <cc:Work
         rdf:about="">
        <dc:format>image/svg+xml</dc:format>
        <dc:type
           rdf:resource="http://purl.org/dc/dcmitype/StillImage" />
        <dc:title></dc:title>
      </cc:Work>
    </rdf:RDF>
  </metadata>
  <g
     inkscape:label="Layer 1"
     inkscape:groupmode="layer"
     id="layer1"
     transform="translate(0,-752.36218)">
    <g
       transform="matrix(0.22309769,0,0,0.22309769,-396.60708,685.14348)"
       id="g3313"
       style="fill:#e6e6e6">
      <path
         inkscape:connector-curvature="0"
         d="m 1841.25,-3.1875 c -0.4518,0.061218 -0.75,0.59375 -0.75,0.59375 -0.6975,-1.16875 -1.4688,-0.1875 -1.4688,-0.1875 -0.086,0.69625 -0.375,0.15625 -0.375,0.15625 -0.6674,-0.64 -1.3124,0.15625 -1.3124,0.15625 -0.1676,0.80875 -0.3126,0.25 -0.3126,0.25 -0.8075,-0.72375 -1.9687,0.78125 -1.9687,0.78125 -0.2225,-0.2225 -0.8125,0.15625 -0.8125,0.15625 -0.3075,0.5825 -0.5312,0.15625 -0.5312,0.15625 -1.2513,-0.6675 -1.5313,0.9375 -1.5313,0.9375 -0.445,-0.11125 -1.4375,0.25 -1.4375,0.25 -1.3062,0.5 -0.4688,1.9375 -0.4688,1.9375 -0.3338,0.25125 -10.375,3.84375 -10.375,3.84375 -0.948,0.4725 -1.0312,-0.90625 -1.0312,-0.90625 -0.2513,-0.9475 -1.5312,-2.5 -1.5312,-2.5 0.6386,0.195 0.875,-0.34375 0.875,-0.34375 -1,0.335 -2.875,-1.28125 -2.875,-1.28125 -2.1714,-1.2237 -5.1563,0.03125 -5.1563,0.03125 -2.2537,0.3875 -3.0625,2.78125 -3.0625,2.78125 -0.1963,0.47125 -0.7812,0.75 -0.7812,0.75 0.6938,0.14 0.094,1.25 0.094,1.25 -0.5302,1.195 0.094,3.625 0.094,3.625 0.3639,0.2775 0.5938,1.21875 0.5938,1.21875 -0.5562,0.585 -22.0312,8.28125 -22.0312,8.28125 -1.5028,0.61 -1.5938,4.03125 -1.5938,4.03125 -0.6396,2.53125 1.8125,2.0625 1.8125,2.0625 1.1401,-0.39 0.4063,-4.6875 0.4063,-4.6875 -0.1392,-1.11125 0.7187,-1.09375 0.7187,-1.09375 3.0353,-1.29625 20.8437,-7.25125 21.125,-7.34375 -0.275,0.28125 0.125,1 0.125,1 0.3887,1.78125 3.2813,2.5 3.2813,2.5 1.6124,0.72375 1.3437,1.84375 1.3437,1.84375 -1.335,-0.44625 -1.8437,0.09375 -1.8437,0.09375 -0.5563,0.55625 0.2812,2.71875 0.2812,2.71875 0.9462,0.77875 -0.9375,2.46875 -0.9375,2.46875 -0.945,0.27875 -1.125,1.21875 -1.125,1.21875 0.6125,1.00125 -0.3437,2.5625 -0.3437,2.5625 -0.5001,3.67125 1.75,5.875 1.75,5.875 -0.2226,1.28 1.2812,2.34375 1.2812,2.34375 1.1687,0.66625 1.7812,2.21875 1.7812,2.21875 -0.7225,0.6675 0.3126,1.0625 0.3126,1.0625 1.0025,0 1.2187,0.84375 1.2187,0.84375 -0.445,1.335 1.7813,2.375 1.7813,2.375 -1.1688,0.83375 0.062,1.5625 0.062,1.5625 -0.8899,1.0575 0.3438,3.5 0.3438,3.5 0.8338,1.0575 1.0938,3.03125 1.0938,3.03125 -0.9451,0.6675 -0.75,2.59375 -0.75,2.59375 0.555,1.5025 1.2187,5.34375 1.2187,5.34375 0.6125,1.72625 0.1563,5.75 0.1563,5.75 -0.5013,1.5025 0.9062,8.5 0.9062,8.5 -1.0575,2.39125 0.75,5.1875 0.75,5.1875 1.2238,1.61375 0.9688,1.875 0.9688,1.875 -0.3351,1.00125 0.094,3.71875 0.094,3.71875 0.6662,1.61375 -1.5,2.90625 -1.5,2.90625 -2.8375,1.22375 -6.4063,6.34375 -6.4063,6.34375 -2.2249,2.83875 -5,4.90625 -5,4.90625 -0.7787,-1.0575 -3,-0.84375 -3,-0.84375 -3.9512,0.50125 -2.8437,6.625 -2.8437,6.625 1.0025,1.72375 0.1875,3.34375 0.1875,3.34375 -0.9462,2.28125 1.2812,5.78125 1.2812,5.78125 0.78,2.33625 4.7813,1.71875 4.7813,1.71875 1.445,-0.89 0.7187,-3.28125 0.7187,-3.28125 0.5013,-0.94375 0.5,-2.1875 0.5,-2.1875 0.7788,-0.0563 1,-0.875 1,-0.875 0.5,-0.72375 3.7813,-1.28125 3.7813,-1.28125 2.7825,-1.22375 5.5,-4.84375 5.5,-4.84375 C 1823.4287,97.49125 1830,89.5 1830,89.5 c 2.0037,-3.56 1.2812,0 1.2812,0 -1.0024,1.55875 -0.2812,6 -0.2812,6 -0.946,1.00125 -0.875,3 -0.875,3 -0.1675,2.28125 0.375,7.84375 0.375,7.84375 -0.835,0.50125 -0.9375,1.84375 -0.9375,1.84375 0.5575,0.5 0.094,0.9375 0.094,0.9375 -1.1687,0.055 -0.7187,1.125 -0.7187,1.125 0.725,0.83375 0.7813,2.5625 0.7813,2.5625 -0.6126,1.16875 0.9062,1.71875 0.9062,1.71875 1.8912,1.05625 0.5938,2.71875 0.5938,2.71875 0.5561,2.8375 5.9687,2.5 5.9687,2.5 3.505,-1.28 1.7813,-4.625 1.7813,-4.625 -0.8339,-1.27875 -0.2813,-2.21875 -0.2813,-2.21875 0.3902,-1.7825 -0.062,-3.125 -0.062,-3.125 -1.1113,-0.89125 0,-2.375 0,-2.375 1.1687,-1.44625 0.9375,-4.28125 0.9375,-4.28125 1.1125,-2.3925 0.6875,-3.625 0.6875,-3.625 0.78,-1.33375 0.3125,-3.4375 0.3125,-3.4375 0.39,-0.77875 0.7187,-2.90625 0.7187,-2.90625 -0.2774,-1.22375 0.25,-4.625 0.25,-4.625 -0.2775,-2.33625 0.5938,-3.4375 0.5938,-3.4375 0.1125,-0.38875 1.0312,-3.6875 1.0312,-3.6875 0.028,-0.865 0.7813,-4.0625 0.7813,-4.0625 0.8612,-4.19875 0.5625,-9.65625 0.5625,-9.65625 0.2758,-1.6125 -0.062,-6.53125 -0.062,-6.53125 0.445,-0.80625 0.031,-2.6875 0.031,-2.6875 -0.4463,-0.75125 -0.6563,-2.59375 -0.6563,-2.59375 0.1938,-2.05875 -0.5,-3.8125 -0.5,-3.8125 -0.8337,-0.89125 0.2813,-1.875 0.2813,-1.875 0.8325,-1.30625 -0.063,-3.25 -0.063,-3.25 0.39,-1.14 -1.1874,-4 -1.1874,-4 -0.4163,-0.38625 -1.1876,-2.34375 -1.1876,-2.34375 0.026,-0.9175 -1.6562,-4.65625 -1.6562,-4.65625 -0.3325,-0.89 -2.9688,-8.59375 -2.9688,-8.59375 -0.5275,-1.0588 -0.094,-1 -0.094,-1 1.1425,-0.36 4.3437,-1.84375 4.3437,-1.84375 4.8951,-2.19625 7.5626,-4.46875 7.5626,-4.46875 1.31,-1.22375 0.9062,-2.96875 0.9062,-2.96875 0.25,-2.78375 -0.625,-6.53125 -0.625,-6.53125 -0.4187,-0.75125 -1.2812,-4.875 -1.2812,-4.875 -0.165,-0.86125 -0.9688,-2 -0.9688,-2 -0.475,-0.2225 -1,-2.3125 -1,-2.3125 -0.1112,-1.03 -1.0312,-1.84375 -1.0312,-1.84375 -0.7225,-0.19625 -0.1563,-0.5625 -0.1563,-0.5625 0.89,-0.25125 0.375,-1.15625 0.375,-1.15625 -0.415,-1.28 -1.7187,-0.375 -1.7187,-0.375 -0.9463,0.53 -0.6563,0.03125 -0.6563,0.03125 -0.3441,-0.5320312 -0.6664,-0.661731 -0.9375,-0.625 z M 1830.9688,3.5 c 0.1095,0.020625 0.1974,0.0625 0.2812,0.1875 0,0 1.4662,1.855 2.7188,2.4375 0,0 2.5512,0.42125 0.9374,1.8125 0,0 -1.2909,3.27875 -1.375,4.28125 0,0 -0.4849,0.89 -0.625,1.25 0,0 0.083,0.3925 -0.75,0.28125 1e-4,0 -1.9737,-0.1925 -2.2812,0.03125 0,0 -1.22,-1.0075 -2.5,-0.28125 0,0 -1.9213,-0.0275 -2.5625,0.78125 0,0 -1.1312,0.59375 -1.9375,0.59375 0,0 -1.598,0.82 -1.625,-0.375 0,0 -0.051,-1.6175 -0.2188,-2.0625 0,0 -0.1949,-2.65875 -0.5,-3.4375 1e-4,0 -0.3074,-0.935 -0.5312,-1.15625 0,0 -0.3762,-0.5325 0.625,-0.78125 0,0 9.3438,-3.485 9.625,-3.34375 0,0 0.39,-0.280625 0.7188,-0.21875 z m 8.625,0.375 c 0,0 1.3637,0.06 1.7812,0.78125 0,0 0.1574,1.21875 0.4062,1.5 1e-4,0 -0.1987,1.2625 0.2188,1.875 0,0 -0.3999,1.93 0.4062,3.125 1e-4,0 0.4226,0.25875 -0.2187,1.09375 0,0 -0.6823,1.29875 -0.6563,1.71875 1e-4,0 -0.3812,0.38 -0.9374,0.4375 -1e-4,0 -0.7826,-0.14125 -1.0626,0.25 0,0 -0.7962,0.32375 -0.4062,-0.59375 0,0 0.3637,-3.3525 1.0312,-3.9375 0,0 0.3588,-1.38125 -0.2812,-1.6875 0,0 -0.9762,-0.2825 -0.5312,-1.3125 -1e-4,0 0.1699,-1.4975 0.2812,-2 0,0 0.1074,-0.83125 -0.031,-1.25 z"
         style="fill:#e6e6e6;fill-opacity:1;fill-rule:nonzero;stroke:none"
         transform="translate(0,308.2677)"
         id="path3001" />
    </g>
  </g>
</svg>
